<svg xmlns="http://www.w3.org/2000/svg" viewBox="0 0 960 720" role="img" aria-label="Premium plated dish illustration">
  <defs>
    <radialGradient id="bg" cx="48%" cy="42%" r="64%">
      <stop offset="0" stop-color="#245c3e"/>
      <stop offset="0.56" stop-color="#103825"/>
      <stop offset="1" stop-color="#071b13"/>
    </radialGradient>
    <radialGradient id="plate" cx="45%" cy="40%" r="62%">
      <stop offset="0" stop-color="#f5ead4"/>
      <stop offset="0.5" stop-color="#d5ba82"/>
      <stop offset="0.82" stop-color="#6d7a54"/>
      <stop offset="1" stop-color="#183b29"/>
    </radialGradient>
    <radialGradient id="bowl" cx="45%" cy="28%" r="64%">
      <stop offset="0" stop-color="#173f2b"/>
      <stop offset="0.64" stop-color="#0d2e20"/>
      <stop offset="1" stop-color="#061710"/>
    </radialGradient>
    <linearGradient id="leaf" x1="0" x2="1" y1="0" y2="1">
      <stop offset="0" stop-color="#9fbd6e"/>
      <stop offset="0.48" stop-color="#43875a"/>
      <stop offset="1" stop-color="#123d2a"/>
    </linearGradient>
    <linearGradient id="warm" x1="0" x2="1">
      <stop offset="0" stop-color="#f3c56f"/>
      <stop offset="1" stop-color="#b87a32"/>
    </linearGradient>
    <filter id="soft" x="-20%" y="-20%" width="140%" height="150%">
      <feDropShadow dx="0" dy="28" stdDeviation="24" flood-color="#020705" flood-opacity="0.45"/>
    </filter>
  </defs>
  <rect width="960" height="720" fill="url(#bg)"/>
  <circle cx="760" cy="150" r="150" fill="#d4a85b" opacity="0.1"/>
  <circle cx="224" cy="590" r="190" fill="#4b8a5d" opacity="0.12"/>
  <g opacity="0.18" fill="none" stroke="#c9ae72" stroke-width="2">
    <circle cx="480" cy="368" r="278"/>
    <circle cx="480" cy="368" r="228"/>
  </g>
  <ellipse cx="480" cy="574" rx="300" ry="56" fill="#020705" opacity="0.34"/>
  <g filter="url(#soft)">
    <ellipse cx="480" cy="394" rx="330" ry="198" fill="url(#plate)"/>
    <ellipse cx="480" cy="380" rx="254" ry="150" fill="#092219" opacity="0.92"/>
    <ellipse cx="480" cy="350" rx="224" ry="124" fill="url(#bowl)"/>
    <ellipse cx="480" cy="326" rx="178" ry="88" fill="#173e2b"/>
    <ellipse cx="480" cy="316" rx="132" ry="54" fill="#d7a455" opacity="0.9"/>
    <ellipse cx="480" cy="314" rx="106" ry="38" fill="#743f1f" opacity="0.42"/>
  </g>
  <g>
    <ellipse cx="395" cy="282" rx="54" ry="22" fill="url(#leaf)" transform="rotate(-30 395 282)"/>
    <ellipse cx="432" cy="252" rx="63" ry="24" fill="url(#leaf)" transform="rotate(-12 432 252)"/>
    <ellipse cx="520" cy="246" rx="68" ry="25" fill="url(#leaf)" transform="rotate(17 520 246)"/>
    <ellipse cx="572" cy="282" rx="56" ry="22" fill="url(#leaf)" transform="rotate(37 572 282)"/>
    <circle cx="438" cy="311" r="18" fill="#f0bd5e"/>
    <circle cx="501" cy="292" r="14" fill="#f7d38b"/>
    <circle cx="552" cy="326" r="20" fill="#c27638"/>
  </g>
  <g fill="none" stroke-linecap="round">
    <path d="M335 335c70-52 211-68 304-8" stroke="#f4d48b" stroke-width="7" opacity="0.78"/>
    <path d="M382 379c66 28 170 30 234-2" stroke="#456f48" stroke-width="9" opacity="0.7"/>
  </g>
</svg>
